<svg xmlns="http://www.w3.org/2000/svg" width="2133" height="2133" viewBox="0 0 2133 2133">
  <defs>
    <style>
      .cls-1 {
        fill: red;
      }

      .cls-2 {
        fill: #fff;
      }

      .cls-3 {
        fill: blue;
      }

      .cls-4 {
        fill-rule: evenodd;
      }
    </style>
  </defs>
  <rect class="cls-1" width="2133" height="2133"/>
  <rect class="cls-2" y="423" width="2133" height="1275"/>
  <rect class="cls-3" y="849" width="2133" height="426"/>
  <path id="logo" class="cls-4" d="M1590.88,825.139c-74.56-28.543-56.23-76.939-56.23-76.939l-19.56,35.989s-44-65.773-77-76.942-42.78,34.745-42.78,34.745,99.01,143.952,168.68,167.528c37.86,12.814,150.34-3.721,150.34-3.721s-83.11,86.865-221.24,67.01c-36.75-5.282-166.23-153.875-166.23-153.875s-20.08,73.522,1.51,162.49c28.23,116.4,99.94,255.706,99.94,255.706a737.574,737.574,0,0,1-73.36-76.09c-33.9-41.11-64.76-91.44-64.76-91.44s-4.65,29.76-1.58,60.97c4.11,41.7,16.24,87.94,16.24,87.94s-46.2-38.66-66.85-129.14c-23.74-104.024-8.93-266.715-8.93-266.715s-29.42,5.027-91.38,72.445a194.076,194.076,0,0,1,4.94,21.81c8.43,52.349-2.79,96.85-2.79,96.85s-18.02-36.526-40.92-73.195c-27.74,34.731-60.09,79.645-97.2,137.725-14.863,23.25-26.67,49.18-36.036,76.25,35.506,120.35,82.476,293.55,82.476,293.55s39.12,4.96,51.34,7.44,56.49,21.53,169.91,54.61c114.89,33.5,327.58,75.69,327.58,75.69H427.224s189.459-43.43,298.247-83.14c36.367-13.28,60.049-23.92,87.608-34.57,28.133-10.87,60.205-19.77,60.205-19.77l0.469-.08c1.615-47.63,10.08-184.54,54.466-310.69C872.251,968.029,785.083,792.12,778.03,781.705c-13.444-19.858-30.557-4.964-30.557-4.964s15.89,18.614,19.558,33.508S727.916,926.9,727.916,926.9s-14.883-3.365-29.414.972c-16.511,4.929-32.924,17.642-32.924,17.642a116.631,116.631,0,0,0,26.779,10.412c16.565,3.957,35.559,4.479,35.559,4.479l-75.784,96.79s-8.632,6.32-16.9.9c-10.426-6.82-20.994-25.72-20.994-25.72s1.353,16.51,8.078,27.6c7.854,12.96,13.924,18.32,13.924,18.32s-14.442,27.93-33.229,64.41c-28.157,54.67-57.224,127.93-57.224,127.93s7.022-81.63,4.89-171.3c-1.348-56.6-12.225-117.146-12.225-160.026,0-37.2,7.335-62.045,7.335-62.045s10.631,0.347,18.772,5.106c11.452,6.691,21.565,18.47,21.565,18.47s-1.764-12.979-9.1-23.179c-9-12.518-23.907-22.736-23.907-22.736l30.558-39.71s-6.111-7.445-28.113-9.929-58.672,39.713-103.9,53.363-117.344,9.929-117.344,9.929,76.3-49.323,137.574-95.895a1049.57,1049.57,0,0,0,91-77.838s18.319,4.918,28.076,11.956a59.273,59.273,0,0,1,18.373,21.549s-0.59-14.764-6.485-25.308c-6.865-12.28-19.184-20.606-19.184-20.606s14.657-20.663,35.274-33.785c20.328-12.937,46.623-18.335,46.623-18.335a311.768,311.768,0,0,1,45.235-1.432,391.846,391.846,0,0,1,50.105,6.394s61.117-78.18,100.232-81.9S918.6,570.746,918.6,570.746s4.334-9.166,21.713-13.579c19.2-4.87,51.626-5.035,51.626-5.035s16.522,29.233,12.112,53.106c-4.74,25.7-30.448,46.168-30.448,46.168s13.679,3.748,25.063-.453c15-5.536,28.715-19.4,28.715-19.4a128.311,128.311,0,0,1,24.6,31.5c8.23,15.312,12.08,34.265,12.08,34.265a74.778,74.778,0,0,1-3.03,25.868c-4.96,15.451-15.31,31.216-15.31,31.216s12.78-8.927,20.7-19.13a69.5,69.5,0,0,0,11.08-21.823s18.34,35.989,25.67,55.843,6.11,54.6,6.11,54.6,6.71,13,14.24,31.164c79.97-77.337,152-126.715,152-126.715s-0.91-26.307-11.06-45.2c-11.74-21.844-32.95-36.7-32.95-36.7l14.67-3.721s-4.79-19.048-17.78-32.807c-14.98-15.872-38.45-26.761-38.45-26.761s33.87-14.743,56.14-11.7c30.74,4.208,52.65,26.59,52.65,26.59s15.05-17.241,30.36-29.739a201.417,201.417,0,0,1,31.98-21.14,388.309,388.309,0,0,1-4.73,90.044c-8.1,45.977-28.27,97.339-28.27,97.339s41.09-26.929,72.56-59.12c29.73-30.423,44.36-68.671,74.12-66.217,79.41,6.552,46.45,67.013,46.45,67.013l28.11-29.784s49.73,57.334,113.67,126.578c36.68,39.709,135.68,60.805,135.68,60.805S1665.44,853.68,1590.88,825.139ZM949.939,1210.17c-21.5,94.48-19.624,190.26-17.742,227.99h53.324S982.555,1334.67,949.939,1210.17Zm60.331-372.624a17.845,17.845,0,0,0,5.35-12.4c0.35-11.273-4.13-27.315-4.13-27.315l-20.774,24.819-9.779-8.688s1.366,70.189-10.632,121.41c-11.837,50.528-37.039,82.1-37.039,82.1s7.068-53.389,2.489-99.277c-3.887-38.956-19.239-70.766-22.046-78.176-6.111-16.131-2.445-34.746-8.556-60.806s-33.42-54.6-33-73.211c1.221-54.6-12.224-54.6-12.224-54.6s-24.788,9.325-40.994,31.449c-19.015,25.962-29.9,65.345-29.9,65.345s84.339,129.059,149.122,317.68c2.465,7.18,5.263,15.74,8.319,25.39a501.036,501.036,0,0,1,32.018-61.38c27.748-44.874,61.548-87.067,96.268-124.871C1042.81,862.63,1010.27,837.546,1010.27,837.546Z"/>
</svg>
